<svg width="293" height="164" viewBox="0 0 293 164" fill="none" xmlns="http://www.w3.org/2000/svg">
<path d="M73 105L186 64" stroke="#CAD5D9" stroke-width="5"/>
<path d="M146 81L110 36C106.667 34 98.2 31.2 91 36C83.8 40.8 84 51.3333 85 56L120 98V124L151 161C158 163.333 174.8 165.6 186 156C197.2 146.4 199.333 130.667 199 124L172 91L146 81Z" fill="#CAD5D9"/>
<path d="M293 51L277 0L159 43L169 94L293 51Z" fill="#397E82"/>
<path d="M89 119V73L5 104L0 150L89 119Z" fill="#397E82"/>
<path d="M126.827 118.017L133.685 112.62L137.259 117.161L136.063 118.102L133.631 115.011L131.996 116.297L134.192 119.086L132.996 120.027L130.801 117.237L127.968 119.467L126.827 118.017ZM139.167 119.586L132.308 124.983L131.167 123.533L138.026 118.136L139.167 119.586ZM141.061 126.052C141.31 125.813 141.429 125.533 141.419 125.212C141.409 124.891 141.267 124.556 140.993 124.208C140.806 123.972 140.616 123.798 140.42 123.688C140.227 123.576 140.039 123.522 139.854 123.526C139.671 123.533 139.506 123.594 139.359 123.71C139.232 123.802 139.145 123.912 139.098 124.04C139.052 124.17 139.035 124.312 139.047 124.465C139.061 124.616 139.096 124.777 139.15 124.947C139.207 125.116 139.278 125.288 139.362 125.464L139.699 126.196C139.868 126.548 139.995 126.893 140.08 127.231C140.165 127.569 140.198 127.894 140.179 128.205C140.16 128.516 140.08 128.809 139.938 129.083C139.797 129.36 139.585 129.612 139.301 129.839C138.88 130.167 138.432 130.346 137.957 130.377C137.486 130.407 137.009 130.291 136.527 130.027C136.048 129.763 135.589 129.353 135.15 128.795C134.715 128.241 134.42 127.692 134.266 127.148C134.115 126.605 134.114 126.089 134.266 125.597C134.422 125.106 134.742 124.66 135.227 124.261L136.331 125.664C136.113 125.861 135.973 126.078 135.91 126.315C135.852 126.553 135.86 126.801 135.937 127.059C136.017 127.317 136.156 127.571 136.353 127.821C136.546 128.067 136.749 128.252 136.963 128.377C137.179 128.503 137.39 128.567 137.596 128.567C137.802 128.568 137.988 128.503 138.153 128.373C138.307 128.252 138.401 128.104 138.434 127.93C138.468 127.758 138.454 127.556 138.391 127.324C138.329 127.094 138.23 126.83 138.093 126.533L137.693 125.638C137.379 124.95 137.24 124.32 137.275 123.75C137.311 123.179 137.583 122.696 138.092 122.299C138.505 121.97 138.955 121.795 139.441 121.774C139.929 121.756 140.414 121.874 140.898 122.13C141.381 122.386 141.819 122.764 142.213 123.264C142.613 123.773 142.876 124.286 143 124.803C143.127 125.322 143.118 125.809 142.975 126.265C142.831 126.722 142.558 127.114 142.155 127.442L141.061 126.052ZM138.11 132.356L144.968 126.959L146.109 128.409L143.279 130.636L145.596 133.58L148.426 131.353L149.564 132.8L142.705 138.196L141.567 136.75L144.4 134.52L142.084 131.577L139.251 133.806L138.11 132.356ZM151.46 139.268C151.709 139.029 151.828 138.748 151.818 138.428C151.808 138.107 151.666 137.772 151.392 137.424C151.205 137.187 151.015 137.014 150.819 136.903C150.626 136.791 150.438 136.738 150.253 136.742C150.07 136.748 149.905 136.81 149.758 136.925C149.631 137.018 149.544 137.128 149.497 137.255C149.451 137.386 149.434 137.527 149.446 137.68C149.46 137.832 149.495 137.993 149.549 138.163C149.606 138.332 149.677 138.504 149.761 138.68L150.098 139.412C150.267 139.764 150.394 140.109 150.479 140.447C150.564 140.785 150.597 141.109 150.578 141.42C150.559 141.732 150.479 142.025 150.337 142.299C150.196 142.576 149.984 142.828 149.7 143.055C149.279 143.383 148.831 143.562 148.356 143.592C147.885 143.623 147.408 143.506 146.926 143.243C146.447 142.979 145.988 142.568 145.549 142.01C145.113 141.457 144.819 140.908 144.665 140.363C144.513 139.821 144.513 139.304 144.665 138.813C144.821 138.321 145.141 137.876 145.626 137.477L146.73 138.88C146.512 139.076 146.372 139.293 146.309 139.531C146.25 139.768 146.259 140.016 146.336 140.274C146.416 140.533 146.555 140.787 146.752 141.037C146.945 141.282 147.148 141.468 147.362 141.592C147.578 141.719 147.788 141.783 147.995 141.783C148.201 141.783 148.387 141.719 148.552 141.589C148.706 141.467 148.8 141.32 148.833 141.146C148.867 140.974 148.853 140.772 148.789 140.54C148.728 140.31 148.629 140.046 148.492 139.748L148.092 138.854C147.778 138.165 147.639 137.536 147.674 136.965C147.71 136.395 147.982 135.912 148.491 135.515C148.904 135.186 149.354 135.011 149.84 134.99C150.328 134.971 150.813 135.09 151.296 135.346C151.78 135.602 152.218 135.98 152.612 136.48C153.012 136.989 153.275 137.502 153.399 138.018C153.526 138.537 153.517 139.025 153.374 139.481C153.23 139.937 152.957 140.33 152.553 140.658L151.46 139.268ZM149.316 146.597L148.093 145.043L156.815 142.014L158.285 143.883L153.287 151.644L152.064 150.09L156.004 144.209L155.961 144.155L149.316 146.597ZM151.935 144.379L154.823 148.049L153.691 148.94L150.803 145.269L151.935 144.379ZM158.734 146.914L159.93 145.973L164.362 151.606L163.167 152.547L161.515 150.447L155.852 154.903L154.724 153.47L160.387 149.014L158.734 146.914Z" fill="#FF4A11"/>
</svg>
