<svg width="293" height="164" viewBox="0 0 293 164" fill="none" xmlns="http://www.w3.org/2000/svg">
<path d="M73 105L186 64" stroke="#BDBDBD" stroke-width="5"/>
<path d="M146 81L110 36C106.667 34 98.2 31.2 91 36C83.8 40.8 84 51.3333 85 56L120 98V124L151 161C158 163.333 174.8 165.6 186 156C197.2 146.4 199.333 130.667 199 124L172 91L146 81Z" fill="#BDBDBD"/>
<path d="M293 51L277 0L159 43L169 94L293 51Z" fill="#394B82"/>
<path d="M89 119V73L5 104L0 150L89 119Z" fill="#394B82"/>
<path d="M155.379 138.484L160.834 145.296L159.291 146.532L153.963 144.925L153.923 144.957L156.79 148.536L154.941 150.017L149.485 143.205L151.055 141.947L156.332 143.574L156.385 143.531L153.529 139.966L155.379 138.484ZM161.709 144.596L156.254 137.784L161.043 133.948L162.237 135.438L159.296 137.793L160.234 138.964L162.882 136.843L164.075 138.333L161.427 140.454L163.558 143.115L161.709 144.596ZM167.1 132.591C166.905 132.383 166.683 132.277 166.435 132.272C166.189 132.265 165.917 132.381 165.617 132.621C165.427 132.774 165.289 132.922 165.204 133.066C165.12 133.207 165.08 133.339 165.085 133.462C165.089 133.586 165.13 133.699 165.208 133.8C165.269 133.886 165.343 133.949 165.43 133.989C165.517 134.025 165.619 134.039 165.737 134.032C165.854 134.022 165.987 133.992 166.139 133.94C166.29 133.888 166.46 133.814 166.648 133.717L167.303 133.389C167.744 133.167 168.151 133.014 168.524 132.93C168.897 132.846 169.24 132.824 169.553 132.865C169.864 132.903 170.147 133 170.403 133.156C170.661 133.31 170.895 133.516 171.105 133.773C171.461 134.223 171.653 134.692 171.68 135.18C171.707 135.668 171.579 136.158 171.296 136.65C171.015 137.141 170.587 137.617 170.01 138.078C169.418 138.553 168.831 138.879 168.25 139.057C167.67 139.233 167.113 139.238 166.578 139.069C166.043 138.897 165.547 138.527 165.088 137.959L166.844 136.552C167.022 136.752 167.215 136.885 167.421 136.952C167.628 137.02 167.845 137.023 168.072 136.961C168.302 136.897 168.534 136.771 168.769 136.583C168.966 136.425 169.112 136.268 169.206 136.113C169.3 135.958 169.347 135.809 169.346 135.668C169.345 135.526 169.302 135.399 169.215 135.286C169.13 135.184 169.023 135.121 168.894 135.096C168.766 135.068 168.602 135.082 168.404 135.139C168.204 135.194 167.955 135.295 167.658 135.442L166.862 135.839C166.155 136.191 165.504 136.353 164.911 136.326C164.318 136.295 163.81 136.013 163.386 135.479C163.037 135.048 162.85 134.578 162.823 134.067C162.797 133.553 162.919 133.039 163.188 132.525C163.459 132.009 163.864 131.536 164.403 131.104C164.953 130.664 165.502 130.375 166.051 130.238C166.6 130.1 167.117 130.112 167.602 130.273C168.088 130.429 168.511 130.73 168.87 131.174L167.1 132.591ZM174.921 134.014L172.926 135.612L169.718 127L172.246 124.975L179.95 129.986L177.955 131.585L172.511 127.842L172.458 127.885L174.921 134.014ZM172.396 131.625L176.148 128.62L177.256 130.004L173.505 133.009L172.396 131.625ZM175.298 124.977L174.105 123.487L180.025 118.745L181.219 120.235L179.17 121.876L183.432 127.198L181.609 128.658L177.347 123.336L175.298 124.977Z" fill="#FF4A11"/>
</svg>
