<svg width="56" height="585" viewBox="0 0 56 585" fill="none" xmlns="http://www.w3.org/2000/svg">
<path d="M54.5516 584.5L48.4405 567.5H42.3294L36.2183 584.5H54.5516Z" fill="#0C182E"/>
<path d="M19.4128 584.5L13.3017 567.5H7.19062L1.07952 584.5H19.4128Z" fill="#0C182E"/>
<path d="M42.8387 584.5L36.7276 567.5H30.6165L24.5054 584.5H42.8387Z" fill="#263653"/>
<path d="M42.8387 584.5L36.7276 567.5H30.6165L24.5054 584.5H42.8387Z" fill="#263653"/>
<path d="M42.8387 584.5L36.7276 567.5H30.6165L24.5054 584.5H42.8387Z" fill="#263653"/>
<path d="M31.635 584.5L25.5239 567.5H19.4128L13.3017 584.5H31.635Z" fill="#1A263E"/>
<path d="M55.0609 543H0.0610046L2.6073 567.5H52.5146L55.0609 543Z" fill="#FF4A11"/>
<path d="M55.061 36.5C55.061 18.5 28.5796 0 28.5796 0C28.5796 0 0.0611889 16.5 0.0611645 36.5C0.0610151 159 0.0611645 543 0.0611645 543H55.061V36.5Z" fill="#EBEBE1"/>
</svg>
